<?xml version="1.0" encoding="UTF-8"?>
<svg width="340px" height="279px" viewBox="0 0 340 279" version="1.1" xmlns="http://www.w3.org/2000/svg" xmlns:xlink="http://www.w3.org/1999/xlink">
    <!-- Generator: sketchtool 53.2 (72643) - https://sketchapp.com -->
    <title>5680B741-1D87-4CBB-AA5C-EA4D7FC7B7BC</title>
    <desc>Created with sketchtool.</desc>
    <defs>
        <polygon id="path-1" points="0 278.26087 339.193907 278.26087 339.193907 0 0 0"></polygon>
    </defs>
    <g id="Product-Detail-+-Cart-Flow-+-Category" stroke="none" stroke-width="1" fill="none" fill-rule="evenodd">
        <g id="Cart--&gt;-Empty" transform="translate(-550.000000, -296.000000)">
            <g id="Cart---Modal" transform="translate(-5.000000, -4.000000)">
                <g id="cart-empty" transform="translate(555.000000, 300.000000)">
                    <path d="M168.417112,205.478814 C168.417112,209.599105 165.382525,213.000013 161.430504,213.588057 L149.335889,213.588057 C145.383869,213.000013 142.348287,209.599105 142.348287,205.478814 C142.348287,200.945598 146.020009,197.270071 150.548532,197.270071 L160.216868,197.270071 C164.745391,197.270071 168.417112,200.945598 168.417112,205.478814 M311.407504,74.2344463 L183.262039,74.2344463 C178.344874,74.2344463 174.360053,70.2444998 174.360053,65.322239 C174.360053,60.4009732 178.344874,56.4110266 183.262039,56.4110266 L202.066938,56.4110266 C214.826518,56.4110266 225.16976,46.0560705 225.16976,33.2832664 L225.16976,33.2832664 C225.16976,20.5094673 214.826518,10.1555062 202.066938,10.1555062 L44.685864,10.1555062 C31.9252901,10.1555062 21.5820487,20.5094673 21.5820487,33.2832664 L21.5820487,33.2832664 C21.5820487,46.0560705 31.9252901,56.4110266 44.685864,56.4110266 L111.156546,56.4110266 C116.072717,56.4110266 120.058533,60.4009732 120.058533,65.322239 C120.058533,70.2444998 116.072717,74.2344463 111.156546,74.2344463 L93.0712806,74.2344463 C77.7253933,74.2344463 65.2848774,86.6878557 65.2848774,102.049648 C65.2848774,117.411439 77.7253933,129.864849 93.0712806,129.864849 L210.125045,129.864849 C215.04221,129.864849 219.028025,133.854795 219.028025,138.777056 C219.028025,143.581907 215.226094,147.487279 210.470946,147.671353 L25.1464215,147.671353 C11.2586868,147.671353 0,158.940714 0,172.842842 C0,186.74497 11.2586868,198.015325 25.1464215,198.015325 L80.0492928,198.015325 C84.9654635,198.015325 88.9512791,202.005272 88.9512791,206.926538 C88.9512791,211.399059 85.6572659,215.091501 81.3663017,215.73029 L72.446424,215.73029 C58.5586892,215.73029 47.3000025,227.000646 47.3000025,240.902774 C47.3000025,254.804902 58.5586892,266.074262 72.446424,266.074262 L248.763602,266.074262 C262.651336,266.074262 273.909029,254.804902 273.909029,240.902774 C273.909029,227.000646 262.651336,215.73029 248.763602,215.73029 L233.439582,215.73029 C229.148618,215.091501 225.854604,211.399059 225.854604,206.926538 C225.854604,202.005272 229.84042,198.015325 234.756591,198.015325 L289.482535,198.015325 C303.37027,198.015325 314.628957,186.74497 314.628957,172.842842 C314.628957,158.940714 303.37027,147.671353 289.482535,147.671353 L281.88563,147.671353 C277.130483,147.487279 273.328551,143.581907 273.328551,138.777056 C273.328551,133.854795 277.314367,129.864849 282.231532,129.864849 L311.407504,129.864849 C326.753391,129.864849 339.193907,117.411439 339.193907,102.049648 C339.193907,86.6878557 326.753391,74.2344463 311.407504,74.2344463" id="Fill-1" fill="#EDF6F9"></path>
                    <path d="M250.534833,278.26087 L83.2428036,278.26087 C82.5123792,278.26087 81.9210833,277.655103 81.9210833,276.906802 L81.9210833,276.906802 C81.9210833,276.15952 82.5123792,275.552735 83.2428036,275.552735 L250.534833,275.552735 C251.264264,275.552735 251.856553,276.15952 251.856553,276.906802 L251.856553,276.906802 C251.856553,277.655103 251.264264,278.26087 250.534833,278.26087" id="Fill-3" fill="#EFEFEF"></path>
                    <path d="M69.0812027,278.26087 L38.5671629,278.26087 C37.8329936,278.26087 37.236856,277.655103 37.236856,276.906802 L37.236856,276.906802 C37.236856,276.15952 37.8329936,275.552735 38.5671629,275.552735 L69.0812027,275.552735 C69.8163723,275.552735 70.4115096,276.15952 70.4115096,276.906802 L70.4115096,276.906802 C70.4115096,277.655103 69.8163723,278.26087 69.0812027,278.26087" id="Fill-5" fill="#EFEFEF"></path>
                    <path d="M266.823317,278.26087 L267.356309,278.26087 C263.282165,278.26087 259.980958,277.655103 259.980958,276.906802 L259.980958,276.906802 C259.980958,276.15952 263.282165,275.552735 267.356309,275.552735 L266.823317,275.552735 C270.896477,275.552735 274.198667,276.15952 274.198667,276.906802 L274.198667,276.906802 C274.198667,277.655103 270.896477,278.26087 266.823317,278.26087" id="Fill-7" fill="#EFEFEF"></path>
                    <path d="M114.124952,207.995078 L230.97061,207.995078 L247.145902,120.367284 L101.209998,120.367284 L114.124952,207.995078 Z M237.047416,215.296731 L107.820241,215.296731 L92.7536232,113.064636 L255.918756,113.064636 L237.047416,215.296731 Z" id="Fill-9" fill="#787878"></path>
                    <mask id="mask-2" fill="white">
                        <use xlink:href="#path-1"></use>
                    </mask>
                    <g id="Clip-12"></g>
                    <polygon id="Fill-11" fill="#787878" mask="url(#mask-2)" points="102.232096 146.916323 246.440284 146.916323 246.440284 142.85412 102.232096 142.85412"></polygon>
                    <polygon id="Fill-13" fill="#787878" mask="url(#mask-2)" points="108.325399 184.830213 240.34698 184.830213 240.34698 180.76801 108.325399 180.76801"></polygon>
                    <polygon id="Fill-14" fill="#787878" mask="url(#mask-2)" points="171.966571 211.234529 176.028774 211.234529 176.028774 116.449804 171.966571 116.449804"></polygon>
                    <polygon id="Fill-15" fill="#787878" mask="url(#mask-2)" points="134.911311 211.911562 125.251243 116.861389 129.13185 116.449804 138.791918 211.498981"></polygon>
                    <polygon id="Fill-16" fill="#787878" mask="url(#mask-2)" points="211.108638 211.911562 207.172326 211.425615 218.808782 116.449804 222.744102 116.936747"></polygon>
                    <polygon id="Fill-17" fill="#787878" mask="url(#mask-2)" points="94.8088021 122.543108 77.3010178 105.186178 54.1626997 105.186178 54.1626997 92.7536232 82.4362084 92.7536232 103.586163 113.722095"></polygon>
                    <path d="M228.160372,249.148418 L110.121551,249.148418 C97.1850675,249.148418 86.6603195,238.669909 86.6603195,225.790259 C86.6603195,212.9116 97.1850675,202.43309 110.121551,202.43309 L110.603699,202.43309 L110.603699,214.777283 L110.121551,214.777283 C104.02163,214.777283 99.0599777,219.718128 99.0599777,225.790259 C99.0599777,231.863381 104.02163,236.803236 110.121551,236.803236 L228.160372,236.803236 L228.160372,249.148418 Z" id="Fill-18" fill="#787878" mask="url(#mask-2)"></path>
                    <path d="M68.3165789,104.940231 L46.1021242,104.940231 C42.7016805,104.940231 39.944991,102.212338 39.944991,98.8474154 C39.944991,95.4815161 42.7016805,92.7536232 46.1021242,92.7536232 L68.3165789,92.7536232 C71.7170225,92.7536232 74.473712,95.4815161 74.473712,98.8474154 C74.473712,102.212338 71.7170225,104.940231 68.3165789,104.940231" id="Fill-19" fill="#FF0014" mask="url(#mask-2)"></path>
                    <path d="M247.794351,248.809902 C247.794351,260.961987 237.943063,270.813498 225.791251,270.813498 C213.638446,270.813498 203.787158,260.961987 203.787158,248.809902 C203.787158,236.657816 213.638446,226.806305 225.791251,226.806305 C237.943063,226.806305 247.794351,236.657816 247.794351,248.809902" id="Fill-20" fill="#454545" mask="url(#mask-2)"></path>
                    <path d="M236.961811,248.809902 C236.961811,254.979232 231.96031,259.980958 225.791256,259.980958 C219.621199,259.980958 214.619697,254.979232 214.619697,248.809902 C214.619697,242.639567 219.621199,237.638845 225.791256,237.638845 C231.96031,237.638845 236.961811,242.639567 236.961811,248.809902" id="Fill-21" fill="#FFFFFF" mask="url(#mask-2)"></path>
                    <path d="M132.698614,248.809902 C132.698614,260.961987 122.847326,270.813498 110.695515,270.813498 C98.5427091,270.813498 88.6914207,260.961987 88.6914207,248.809902 C88.6914207,236.657816 98.5427091,226.806305 110.695515,226.806305 C122.847326,226.806305 132.698614,236.657816 132.698614,248.809902" id="Fill-22" fill="#454545" mask="url(#mask-2)"></path>
                    <path d="M121.866074,248.809902 C121.866074,254.979232 116.864573,259.980958 110.695519,259.980958 C104.525462,259.980958 99.5239606,254.979232 99.5239606,248.809902 C99.5239606,242.639567 104.525462,237.638845 110.695519,237.638845 C116.864573,237.638845 121.866074,242.639567 121.866074,248.809902" id="Fill-23" fill="#FFFFFF" mask="url(#mask-2)"></path>
                    <path d="M113.741669,54.8397334 C113.741669,56.3357557 112.528815,57.5478684 111.034012,57.5478684 C109.538254,57.5478684 108.325399,56.3357557 108.325399,54.8397334 C108.325399,53.3437111 109.538254,52.1315984 111.034012,52.1315984 C112.528815,52.1315984 113.741669,53.3437111 113.741669,54.8397334" id="Fill-24" fill="#FFC500" mask="url(#mask-2)"></path>
                    <path d="M185.507246,102.232096 C185.507246,104.101676 183.991658,105.617264 182.122078,105.617264 C180.252497,105.617264 178.736909,104.101676 178.736909,102.232096 C178.736909,100.362515 180.252497,98.8469269 182.122078,98.8469269 C183.991658,98.8469269 185.507246,100.362515 185.507246,102.232096" id="Fill-25" fill="#00AFFF" mask="url(#mask-2)"></path>
                    <path d="M276.229768,85.9832857 C276.229768,87.479161 275.017509,88.6914207 273.521633,88.6914207 C272.025758,88.6914207 270.813498,87.479161 270.813498,85.9832857 C270.813498,84.4874104 272.025758,83.2751507 273.521633,83.2751507 C275.017509,83.2751507 276.229768,84.4874104 276.229768,85.9832857" id="Fill-26" fill="#95C720" mask="url(#mask-2)"></path>
                    <path d="M121.189041,170.612504 C121.189041,172.108379 119.976781,173.320639 118.480906,173.320639 C116.98503,173.320639 115.772771,172.108379 115.772771,170.612504 C115.772771,169.116629 116.98503,167.904369 118.480906,167.904369 C119.976781,167.904369 121.189041,169.116629 121.189041,170.612504" id="Fill-27" fill="#FFC500" mask="url(#mask-2)"></path>
                    <path d="M184.153179,18.9569449 C184.153179,20.4528202 182.940919,21.6650799 181.445044,21.6650799 C179.949169,21.6650799 178.736909,20.4528202 178.736909,18.9569449 C178.736909,17.4610696 179.949169,16.2488099 181.445044,16.2488099 C182.940919,16.2488099 184.153179,17.4610696 184.153179,18.9569449" id="Fill-28" fill="#FF0014" mask="url(#mask-2)"></path>
                    <path d="M299.248916,134.052682 C299.248916,135.548557 298.036656,136.760817 296.540781,136.760817 C295.044905,136.760817 293.832646,135.548557 293.832646,134.052682 C293.832646,132.556806 295.044905,131.344547 296.540781,131.344547 C298.036656,131.344547 299.248916,132.556806 299.248916,134.052682" id="Fill-29" fill="#FF0014" mask="url(#mask-2)"></path>
                    <path d="M191.60055,230.868507 C191.60055,232.364383 190.38829,233.576642 188.892415,233.576642 C187.39654,233.576642 186.18428,232.364383 186.18428,230.868507 C186.18428,229.372632 187.39654,228.160372 188.892415,228.160372 C190.38829,228.160372 191.60055,229.372632 191.60055,230.868507" id="Fill-30" fill="#95C720" mask="url(#mask-2)"></path>
                    <path d="M39.2679573,69.7344758 C39.2679573,71.2303511 38.0556976,72.4426108 36.5598223,72.4426108 C35.063947,72.4426108 33.8516873,71.2303511 33.8516873,69.7344758 C33.8516873,68.2386005 35.063947,67.0263408 36.5598223,67.0263408 C38.0556976,67.0263408 39.2679573,68.2386005 39.2679573,69.7344758" id="Fill-31" fill="#FF0014" mask="url(#mask-2)"></path>
                    <path d="M72.4426108,123.558659 C72.4426108,125.615226 70.7757113,127.282344 68.7184372,127.282344 C66.6621391,127.282344 64.9952396,125.615226 64.9952396,123.558659 C64.9952396,121.502091 66.6621391,119.834973 68.7184372,119.834973 C70.7757113,119.834973 72.4426108,121.502091 72.4426108,123.558659" id="Fill-32" fill="#95C720" mask="url(#mask-2)"></path>
                    <path d="M199.724955,35.5442717 C199.724955,36.4796715 198.967054,37.236856 198.032832,37.236856 C197.097687,37.236856 196.339786,36.4796715 196.339786,35.5442717 C196.339786,34.6097952 197.097687,33.8516873 198.032832,33.8516873 C198.967054,33.8516873 199.724955,34.6097952 199.724955,35.5442717" id="Fill-33" fill="#FF0014" mask="url(#mask-2)"></path>
                    <path d="M109.679467,105.955781 C109.679467,106.890258 108.921566,107.648366 107.987344,107.648366 C107.052199,107.648366 106.294298,106.890258 106.294298,105.955781 C106.294298,105.021305 107.052199,104.263197 107.987344,104.263197 C108.921566,104.263197 109.679467,105.021305 109.679467,105.955781" id="Fill-34" fill="#FF0014" mask="url(#mask-2)"></path>
                    <path d="M266.751296,147.25484 C266.751296,148.563276 265.690114,149.624458 264.381678,149.624458 C263.07218,149.624458 262.01206,148.563276 262.01206,147.25484 C262.01206,145.946403 263.07218,144.885222 264.381678,144.885222 C265.690114,144.885222 266.751296,145.946403 266.751296,147.25484" id="Fill-35" fill="#00AFFF" mask="url(#mask-2)"></path>
                    <path d="M154.363694,224.436687 C154.363694,225.745123 153.302513,226.806305 151.994076,226.806305 C150.685639,226.806305 149.624458,225.745123 149.624458,224.436687 C149.624458,223.12825 150.685639,222.067069 151.994076,222.067069 C153.302513,222.067069 154.363694,223.12825 154.363694,224.436687" id="Fill-36" fill="#FF0014" mask="url(#mask-2)"></path>
                    <path d="M121.0009,24.5235916 L119.684596,24.5235916 L119.684596,23.2063096 C119.684596,22.3555038 118.994172,21.6650799 118.142389,21.6650799 C117.290605,21.6650799 116.600181,22.3555038 116.600181,23.2063096 L116.600181,24.5235916 L115.283877,24.5235916 C114.432093,24.5235916 113.741669,25.2140155 113.741669,26.0657992 C113.741669,26.9175829 114.432093,27.6070289 115.283877,27.6070289 L116.600181,27.6070289 L116.600181,28.9243109 C116.600181,29.7760946 117.290605,30.4665186 118.142389,30.4665186 C118.994172,30.4665186 119.684596,29.7760946 119.684596,28.9243109 L119.684596,27.6070289 L121.0009,27.6070289 C121.852684,27.6070289 122.543108,26.9175829 122.543108,26.0657992 C122.543108,25.2140155 121.852684,24.5235916 121.0009,24.5235916" id="Fill-37" fill="#19354F" mask="url(#mask-2)"></path>
                    <path d="M260.469852,181.595421 L259.153548,181.595421 L259.153548,180.278139 C259.153548,179.427333 258.463124,178.736909 257.61134,178.736909 C256.759557,178.736909 256.069133,179.427333 256.069133,180.278139 L256.069133,181.595421 L254.752829,181.595421 C253.901045,181.595421 253.210621,182.285845 253.210621,183.137628 C253.210621,183.989412 253.901045,184.678858 254.752829,184.678858 L256.069133,184.678858 L256.069133,185.99614 C256.069133,186.847924 256.759557,187.538348 257.61134,187.538348 C258.463124,187.538348 259.153548,186.847924 259.153548,185.99614 L259.153548,184.678858 L260.469852,184.678858 C261.321636,184.678858 262.01206,183.989412 262.01206,183.137628 C262.01206,182.285845 261.321636,181.595421 260.469852,181.595421" id="Fill-38" fill="#19354F" mask="url(#mask-2)"></path>
                    <path d="M265.209088,53.6360426 L263.892784,53.6360426 L263.892784,52.3197386 C263.892784,51.4679549 263.20236,50.7775309 262.350577,50.7775309 C261.498793,50.7775309 260.808369,51.4679549 260.808369,52.3197386 L260.808369,53.6360426 L259.492065,53.6360426 C258.640281,53.6360426 257.949857,54.3264666 257.949857,55.1782503 C257.949857,56.030034 258.640281,56.7204579 259.492065,56.7204579 L260.808369,56.7204579 L260.808369,58.036762 C260.808369,58.8885457 261.498793,59.5789696 262.350577,59.5789696 C263.20236,59.5789696 263.892784,58.8885457 263.892784,58.036762 L263.892784,56.7204579 L265.209088,56.7204579 C266.060872,56.7204579 266.751296,56.030034 266.751296,55.1782503 C266.751296,54.3264666 266.060872,53.6360426 265.209088,53.6360426" id="Fill-39" fill="#19354F" mask="url(#mask-2)"></path>
                    <path d="M81.7329431,157.89924 L80.4156611,157.89924 L80.4156611,156.582935 C80.4156611,155.731152 79.7262151,155.040728 78.8744314,155.040728 C78.0226477,155.040728 77.3322238,155.731152 77.3322238,156.582935 L77.3322238,157.89924 L76.0149418,157.89924 C75.164136,157.89924 74.473712,158.589663 74.473712,159.441447 C74.473712,160.293231 75.164136,160.983655 76.0149418,160.983655 L77.3322238,160.983655 L77.3322238,162.299959 C77.3322238,163.151743 78.0226477,163.842167 78.8744314,163.842167 C79.7262151,163.842167 80.4156611,163.151743 80.4156611,162.299959 L80.4156611,160.983655 L81.7329431,160.983655 C82.5847268,160.983655 83.2751507,160.293231 83.2751507,159.441447 C83.2751507,158.589663 82.5847268,157.89924 81.7329431,157.89924" id="Fill-40" fill="#19354F" mask="url(#mask-2)"></path>
                    <path d="M65.5646601,62.2871046 C64.9085986,62.2871046 64.2445118,62.1069155 63.6546584,61.7319274 L53.0312768,54.9675308 C51.4192113,53.9419139 50.9697991,51.8419803 52.0261183,50.277744 C53.0834407,48.7125337 55.2452337,48.2752099 56.8572992,49.3018008 L67.4816839,56.0661974 C69.0927463,57.0918143 69.5421585,59.1917479 68.4858392,60.7569582 C67.8157336,61.7484853 66.7012315,62.2871046 65.5646601,62.2871046" id="Fill-41" fill="#FF0014" mask="url(#mask-2)"></path>
                    <path d="M247.18718,32.4976198 C246.499255,32.4976198 245.805365,32.2913985 245.19995,31.8619377 C243.6382,30.7547498 243.26342,28.582419 244.362908,27.0107326 L253.695632,13.6644126 C254.794126,12.0927263 256.950355,11.7143203 258.514093,12.8215082 C260.074849,13.9286962 260.449629,16.101027 259.350141,17.6727134 L250.017417,31.0200344 C249.344403,31.9820666 248.274739,32.4976198 247.18718,32.4976198" id="Fill-42" fill="#95C720" mask="url(#mask-2)"></path>
                    <path d="M310.176664,103.586163 C308.642108,103.586163 307.236682,102.57386 306.817257,101.036071 C306.316749,99.1978627 307.414863,97.3051232 309.270745,96.8073991 L323.971656,92.874189 C325.827539,92.376465 327.738477,93.4651125 328.239986,95.304312 C328.741494,97.1425201 327.643381,99.0352597 325.786497,99.5319923 L311.086587,103.465202 C310.78328,103.546504 310.476969,103.586163 310.176664,103.586163" id="Fill-43" fill="#FF0014" mask="url(#mask-2)"></path>
                    <path d="M288.315793,230.868507 C287.607015,230.868507 286.89223,230.654604 286.273551,230.208888 L274.281387,221.558221 C272.724679,220.435972 272.3793,218.272061 273.50954,216.72499 C274.637779,215.178913 276.812165,214.833682 278.372879,215.956926 L290.365042,224.607593 C291.92075,225.729842 292.26713,227.893752 291.136889,229.441819 C290.455141,230.374041 289.393976,230.868507 288.315793,230.868507" id="Fill-44" fill="#95C720" mask="url(#mask-2)"></path>
                    <path d="M44.7213226,213.26563 C43.6545551,213.26563 42.6035188,212.764573 41.9359288,211.82472 C40.8386823,210.280042 41.1945991,208.133501 42.7313342,207.030583 L54.8492227,198.334723 C56.3849746,197.230816 58.5204759,197.588573 59.6187056,199.13424 C60.7169354,200.679907 60.3600353,202.826447 58.8233002,203.929366 L46.7054117,212.625226 C46.1036959,213.057103 45.4085764,213.26563 44.7213226,213.26563" id="Fill-45" fill="#FFC500" mask="url(#mask-2)"></path>
                    <path d="M155.030673,25.7272823 C153.467734,25.7272823 152.062747,24.6326465 151.719544,23.0309801 L147.670333,4.13917723 C147.275455,2.29382168 148.43864,0.47597942 150.269706,0.0770367405 C152.097847,-0.318958087 153.905513,0.850356664 154.300392,2.69669483 L158.348627,21.5875151 C158.744481,23.4328706 157.58032,25.2507129 155.750229,25.6496556 C155.508427,25.7017343 155.2676,25.7272823 155.030673,25.7272823" id="Fill-46" fill="#FFC500" mask="url(#mask-2)"></path>
                    <path d="M8.89757036,148.947424 C7.4190137,148.947424 6.04756982,148.006362 5.57907658,146.533222 C4.99946635,144.714629 6.01653714,142.775922 7.85046795,142.201159 L22.5509449,137.598094 C24.3818726,137.026309 26.338933,138.032889 26.9185432,139.850489 C27.4981535,141.669082 26.4810827,143.608782 24.6471519,144.182552 L9.94667488,148.785617 C9.59830811,148.894812 9.24493607,148.947424 8.89757036,148.947424" id="Fill-47" fill="#95C720" mask="url(#mask-2)"></path>
                    <path d="M318.195659,172.643605 C317.980721,172.643605 317.764805,172.622663 317.544982,172.579783 L304.709252,170.038844 C302.867621,169.673858 301.662989,167.853916 302.019591,165.973142 C302.37717,164.092369 304.155297,162.865778 306.00279,163.228769 L318.839497,165.769708 C320.681128,166.134693 321.88576,167.954636 321.528181,169.835409 C321.213589,171.492803 319.791088,172.643605 318.195659,172.643605" id="Fill-48" fill="#FFC500" mask="url(#mask-2)"></path>
                </g>
            </g>
        </g>
    </g>
</svg>